<svg id="Layer_1" data-name="Layer 1" xmlns="http://www.w3.org/2000/svg" xmlns:xlink="http://www.w3.org/1999/xlink" width="130.9525" height="130.9522" viewBox="0 0 130.9525 130.9522">
  <defs>
    <radialGradient id="radial-gradient" cx="15.2368" cy="31.4666" r="62.1129" gradientUnits="userSpaceOnUse">
      <stop offset="0.0061" stop-color="#639c98"/>
      <stop offset="0.6933" stop-color="#639c98"/>
      <stop offset="0.9877" stop-color="#446e6c"/>
    </radialGradient>
    <radialGradient id="radial-gradient-2" cx="2.1807" cy="-4.5344" r="123.8658" gradientUnits="userSpaceOnUse">
      <stop offset="0.0061" stop-color="#b97557"/>
      <stop offset="0.6135" stop-color="#7c5747"/>
      <stop offset="0.908"/>
    </radialGradient>
    <radialGradient id="radial-gradient-3" cx="29.0838" cy="52.6987" r="130.8672" xlink:href="#radial-gradient-2"/>
  </defs>
  <path d="M63.3128,16.8531c0,24.5824-21.9279,44.5106-48.9788,44.5106S-34.644,41.4355-34.644,16.8531s21.9278-44.51,48.978-44.51S63.3128-7.7291,63.3128,16.8531Z" transform="translate(50.9702 31.4377)" fill="#639c98" fill-rule="evenodd"/>
  <path d="M63.3128,16.8531c0,24.5824-21.9279,44.5106-48.9788,44.5106S-34.644,41.4355-34.644,16.8531s21.9278-44.51,48.978-44.51S63.3128-7.7291,63.3128,16.8531Z" transform="translate(50.9702 31.4377)" fill-rule="evenodd" fill="url(#radial-gradient)"/>
  <path d="M35.1051,31.6322A20.4269,20.4269,0,1,1,14.6778,11.2057,20.428,20.428,0,0,1,35.1051,31.6322Z" transform="translate(50.9702 31.4377)" fill="#c5613d" fill-rule="evenodd"/>
  <g>
    <g>
      <path d="M38.0367,37.4322a1.9507,1.9507,0,0,1,.6228-3.85,1.9529,1.9529,0,1,1-.6228,3.85Z" transform="translate(50.9702 31.4377)" fill="#fff"/>
      <path d="M35.9651,42.8944a1.9508,1.9508,0,0,1,1.5307-3.5873,1.9529,1.9529,0,1,1-1.5307,3.5873Z" transform="translate(50.9702 31.4377)" fill="#fff"/>
      <path d="M32.6424,47.7a1.9509,1.9509,0,0,1,2.346-3.116,1.953,1.953,0,1,1-2.346,3.116Z" transform="translate(50.9702 31.4377)" fill="#fff"/>
      <path d="M28.2712,51.575a1.9506,1.9506,0,0,1,3.02-2.4677,1.9527,1.9527,0,1,1-3.02,2.4677Z" transform="translate(50.9702 31.4377)" fill="#fff"/>
      <path d="M23.1,54.2938a1.9507,1.9507,0,0,1,3.5228-1.6733A1.9528,1.9528,0,1,1,23.1,54.2938Z" transform="translate(50.9702 31.4377)" fill="#fff"/>
      <path d="M17.4278,55.6885a1.9506,1.9506,0,0,1,3.8219-.7761,1.9528,1.9528,0,1,1-3.8219.7761Z" transform="translate(50.9702 31.4377)" fill="#fff"/>
      <path d="M11.5854,55.6885a2.04,2.04,0,0,1,2.0238-1.822,2.039,2.039,0,0,1,1.873,1.9765,1.9526,1.9526,0,1,1-3.8968-.1545Z" transform="translate(50.9702 31.4377)" fill="#fff"/>
      <path d="M5.9122,54.2941a2.04,2.04,0,0,1,2.4-1.2819A2.0414,2.0414,0,0,1,9.6583,55.379a1.9062,1.9062,0,0,1-2.4448,1.4338A1.9073,1.9073,0,0,1,5.9122,54.2941Z" transform="translate(50.9702 31.4377)" fill="#fff"/>
      <path d="M.7413,51.5758A2.0381,2.0381,0,0,1,3.38,50.9089a2.04,2.04,0,0,1,.7372,2.62,1.9077,1.9077,0,0,1-2.7184.8044A1.9079,1.9079,0,0,1,.7413,51.5758Z" transform="translate(50.9702 31.4377)" fill="#fff"/>
      <path d="M-3.63,47.7a2.0371,2.0371,0,0,1,2.7214-.0185A2.04,2.04,0,0,1-.818,50.4028a1.9074,1.9074,0,0,1-2.8313.1317A1.9078,1.9078,0,0,1-3.63,47.7Z" transform="translate(50.9702 31.4377)" fill="#fff"/>
      <path d="M-6.9526,42.8948a2.04,2.04,0,0,1,2.6481.6309A2.0411,2.0411,0,0,1-4.8662,46.19a1.9066,1.9066,0,0,1-2.7806-.5467A1.9081,1.9081,0,0,1-6.9526,42.8948Z" transform="translate(50.9702 31.4377)" fill="#fff"/>
      <path d="M-9.025,37.4329A2.0392,2.0392,0,0,1-6.6071,38.682a2.04,2.04,0,0,1-1.1842,2.4506A1.9061,1.9061,0,0,1-10.36,39.9342,1.9075,1.9075,0,0,1-9.025,37.4329Z" transform="translate(50.9702 31.4377)" fill="#fff"/>
      <path d="M-9.7255,31.633a2.0386,2.0386,0,0,1,2.05,1.7931A2.0383,2.0383,0,0,1-9.4132,35.52a1.9076,1.9076,0,0,1-2.2057-1.78A1.9075,1.9075,0,0,1-9.7255,31.633Z" transform="translate(50.9702 31.4377)" fill="#fff"/>
      <path d="M-9.025,25.833A2.04,2.04,0,0,1-7.4607,28.06,2.042,2.042,0,0,1-9.6474,29.683,1.9061,1.9061,0,0,1-11.3667,27.43,1.9068,1.9068,0,0,1-9.025,25.833Z" transform="translate(50.9702 31.4377)" fill="#fff"/>
      <path d="M-6.9533,20.3708a2.0394,2.0394,0,0,1,.9813,2.5383,2.04,2.04,0,0,1-2.5121,1.0486,1.9068,1.9068,0,0,1-1.1273-2.6006A1.9078,1.9078,0,0,1-6.9533,20.3708Z" transform="translate(50.9702 31.4377)" fill="#fff"/>
      <path d="M-3.6307,15.5653a2.0386,2.0386,0,0,1,.3446,2.7,2.0394,2.0394,0,0,1-2.6906.4157,1.907,1.907,0,0,1-.47-2.7948A1.9086,1.9086,0,0,1-3.6307,15.5653Z" transform="translate(50.9702 31.4377)" fill="#fff"/>
      <path d="M.7405,11.69a2.0376,2.0376,0,0,1-.3076,2.7044,2.04,2.04,0,0,1-2.7121-.2372,1.9058,1.9058,0,0,1,.2086-2.8258A1.907,1.907,0,0,1,.7405,11.69Z" transform="translate(50.9702 31.4377)" fill="#fff"/>
      <path d="M5.9114,8.9714a2.04,2.04,0,0,1-.9458,2.5519,2.0416,2.0416,0,0,1-2.5769-.8786A1.9059,1.9059,0,0,1,3.2672,7.95,1.9073,1.9073,0,0,1,5.9114,8.9714Z" transform="translate(50.9702 31.4377)" fill="#fff"/>
      <path d="M11.5847,7.577a2.0386,2.0386,0,0,1-1.5339,2.2482A2.0394,2.0394,0,0,1,7.7621,8.3529a1.9531,1.9531,0,1,1,3.8226-.7759Z" transform="translate(50.9702 31.4377)" fill="#fff"/>
      <path d="M17.4271,7.577a2.041,2.041,0,0,1-2.0237,1.8221A2.0389,2.0389,0,0,1,13.53,7.4225a1.953,1.953,0,1,1,3.8975.1545Z" transform="translate(50.9702 31.4377)" fill="#fff"/>
      <path d="M23.1,8.9714a1.9507,1.9507,0,0,1-3.7461-1.0845A1.9528,1.9528,0,1,1,23.1,8.9714Z" transform="translate(50.9702 31.4377)" fill="#fff"/>
      <path d="M28.2705,11.69a1.9505,1.9505,0,0,1-3.3752-1.9534A1.9527,1.9527,0,1,1,28.2705,11.69Z" transform="translate(50.9702 31.4377)" fill="#fff"/>
      <path d="M32.6424,15.5649a1.95,1.95,0,0,1-2.8118-2.7021,1.9526,1.9526,0,1,1,2.8118,2.7021Z" transform="translate(50.9702 31.4377)" fill="#fff"/>
      <path d="M35.9651,20.37a1.9509,1.9509,0,0,1-2.087-3.2952,1.953,1.953,0,1,1,2.087,3.2952Z" transform="translate(50.9702 31.4377)" fill="#fff"/>
      <path d="M38.0367,25.8323a1.9507,1.9507,0,0,1-1.2332-3.7,1.9528,1.9528,0,1,1,1.2332,3.7Z" transform="translate(50.9702 31.4377)" fill="#fff"/>
      <path d="M38.7376,31.6322a1.9507,1.9507,0,0,1-.3122-3.8875,1.9528,1.9528,0,1,1,.3122,3.8875Z" transform="translate(50.9702 31.4377)" fill="#fff"/>
    </g>
    <g opacity="0.6">
      <path d="M-14.8412,25.0344a2.0325,2.0325,0,0,1,1.57,2.25,2.031,2.031,0,0,1-2.2053,1.6316,1.9264,1.9264,0,0,1-1.6992-2.2711A1.9249,1.9249,0,0,1-14.8412,25.0344Z" transform="translate(50.9702 31.4377)" fill="#fff"/>
      <path d="M-12.9484,19.452a2.0308,2.0308,0,0,1,1.0968,2.514,2.0309,2.0309,0,0,1-2.4815,1.1676,1.9261,1.9261,0,0,1-1.2213-2.5608A1.9256,1.9256,0,0,1-12.9484,19.452Z" transform="translate(50.9702 31.4377)" fill="#fff"/>
      <path d="M-9.9974,14.3491A2.0315,2.0315,0,0,1-9.4136,17.03a2.0313,2.0313,0,0,1-2.6631.6579,1.9255,1.9255,0,0,1-.6948-2.75A1.9251,1.9251,0,0,1-9.9974,14.3491Z" transform="translate(50.9702 31.4377)" fill="#fff"/>
      <path d="M-6.1095,9.918a2.0314,2.0314,0,0,1,.0532,2.7451,2.0319,2.0319,0,0,1-2.7415.1262,1.9251,1.9251,0,0,1-.1453-2.8319A1.9249,1.9249,0,0,1-6.1095,9.918Z" transform="translate(50.9702 31.4377)" fill="#fff"/>
      <path d="M-1.4339,6.3276A2.0328,2.0328,0,0,1-1.9153,9.03,2.0323,2.0323,0,0,1-4.629,8.6213a1.9241,1.9241,0,0,1,.4072-2.8057A1.9238,1.9238,0,0,1-1.4339,6.3276Z" transform="translate(50.9702 31.4377)" fill="#fff"/>
      <path d="M3.8514,3.7166a2.0336,2.0336,0,0,1-1,2.5554,2.033,2.033,0,0,1-2.5824-.93A1.9249,1.9249,0,0,1,1.2157,2.67,1.9245,1.9245,0,0,1,3.8514,3.7166Z" transform="translate(50.9702 31.4377)" fill="#fff"/>
      <path d="M9.5455,2.1928a2.0334,2.0334,0,0,1-1.482,2.3093,2.0335,2.0335,0,0,1-2.35-1.42A1.9247,1.9247,0,0,1,7.1671.6486,1.9241,1.9241,0,0,1,9.5455,2.1928Z" transform="translate(50.9702 31.4377)" fill="#fff"/>
      <path d="M15.4281,1.8107a1.9675,1.9675,0,0,1-3.9316.1268,1.9681,1.9681,0,1,1,3.9316-.1268Z" transform="translate(50.9702 31.4377)" fill="#fff"/>
      <path d="M21.2729,2.5765a1.9673,1.9673,0,0,1-3.8814-.6355,1.968,1.968,0,1,1,3.8814.6355Z" transform="translate(50.9702 31.4377)" fill="#fff"/>
      <path d="M26.8557,4.4692A2.03,2.03,0,0,1,24.342,5.5657a2.03,2.03,0,0,1-1.1675-2.4811,1.968,1.968,0,1,1,3.6812,1.3846Z" transform="translate(50.9702 31.4377)" fill="#fff"/>
      <path d="M31.9586,7.42a2.0313,2.0313,0,0,1-2.6813.5838A2.0311,2.0311,0,0,1,28.62,5.3408,1.968,1.968,0,1,1,31.9586,7.42Z" transform="translate(50.9702 31.4377)" fill="#fff"/>
      <path d="M36.3893,11.308A1.9674,1.9674,0,0,1,33.518,8.62a1.968,1.968,0,1,1,2.8713,2.6882Z" transform="translate(50.9702 31.4377)" fill="#fff"/>
      <path d="M39.98,15.9837a1.9676,1.9676,0,0,1-2.2941-3.1955A1.9682,1.9682,0,1,1,39.98,15.9837Z" transform="translate(50.9702 31.4377)" fill="#fff"/>
      <path d="M42.5911,21.2686a1.9673,1.9673,0,0,1-1.625-3.5818,1.968,1.968,0,1,1,1.625,3.5818Z" transform="translate(50.9702 31.4377)" fill="#fff"/>
      <path d="M44.1149,26.9631a1.9674,1.9674,0,0,1-.8895-3.8315,1.9681,1.9681,0,1,1,.8895,3.8315Z" transform="translate(50.9702 31.4377)" fill="#fff"/>
      <path d="M44.4966,32.8458a1.9675,1.9675,0,0,1-.1268-3.9316,1.9681,1.9681,0,1,1,.1268,3.9316Z" transform="translate(50.9702 31.4377)" fill="#fff"/>
      <path d="M43.7316,38.6909a1.9674,1.9674,0,0,1,.6351-3.8817,1.9681,1.9681,0,1,1-.6351,3.8817Z" transform="translate(50.9702 31.4377)" fill="#fff"/>
      <path d="M41.8392,44.2733a1.9673,1.9673,0,0,1,1.3839-3.6816,1.968,1.968,0,1,1-1.3839,3.6816Z" transform="translate(50.9702 31.4377)" fill="#fff"/>
      <path d="M38.8883,49.3763a1.9675,1.9675,0,0,1,2.0793-3.3389,1.9681,1.9681,0,1,1-2.0793,3.3389Z" transform="translate(50.9702 31.4377)" fill="#fff"/>
      <path d="M35,53.8074a1.9674,1.9674,0,0,1,2.6883-2.8714A1.9681,1.9681,0,1,1,35,53.8074Z" transform="translate(50.9702 31.4377)" fill="#fff"/>
      <path d="M30.3244,57.3977A1.9673,1.9673,0,0,1,33.52,55.1039a1.968,1.968,0,1,1-3.1951,2.2938Z" transform="translate(50.9702 31.4377)" fill="#fff"/>
      <path d="M25.0391,60.0087a1.9676,1.9676,0,0,1,3.5822-1.6254,1.9682,1.9682,0,1,1-3.5822,1.6254Z" transform="translate(50.9702 31.4377)" fill="#fff"/>
      <path d="M19.345,61.5325a1.9676,1.9676,0,0,1,3.8318-.89,1.9683,1.9683,0,1,1-3.8318.89Z" transform="translate(50.9702 31.4377)" fill="#fff"/>
      <path d="M13.4623,61.9142a1.9675,1.9675,0,0,1,3.9316-.1263,1.9681,1.9681,0,1,1-3.9316.1263Z" transform="translate(50.9702 31.4377)" fill="#fff"/>
      <path d="M7.6176,61.1484a2.032,2.032,0,0,1,2.25-1.57,2.0309,2.0309,0,0,1,1.6312,2.2053,1.968,1.968,0,1,1-3.8813-.6356Z" transform="translate(50.9702 31.4377)" fill="#fff"/>
      <path d="M2.0348,59.2557a2.03,2.03,0,0,1,2.5136-1.0964A2.03,2.03,0,0,1,5.716,60.64a1.9257,1.9257,0,0,1-2.5608,1.2217A1.9263,1.9263,0,0,1,2.0348,59.2557Z" transform="translate(50.9702 31.4377)" fill="#fff"/>
      <path d="M-3.0682,56.3051a2.0319,2.0319,0,0,1,2.6813-.5838,2.0315,2.0315,0,0,1,.6576,2.6631,1.9255,1.9255,0,0,1-2.75.6948A1.9248,1.9248,0,0,1-3.0682,56.3051Z" transform="translate(50.9702 31.4377)" fill="#fff"/>
      <path d="M-7.4993,52.4169a2.0314,2.0314,0,0,1,2.7451-.0526,2.0319,2.0319,0,0,1,.1267,2.7412,1.9253,1.9253,0,0,1-2.832.1453A1.9253,1.9253,0,0,1-7.4993,52.4169Z" transform="translate(50.9702 31.4377)" fill="#fff"/>
      <path d="M-11.09,47.7416a2.0327,2.0327,0,0,1,2.7026.481,2.0329,2.0329,0,0,1-.4088,2.7141,1.9238,1.9238,0,0,1-2.8053-.4072A1.9241,1.9241,0,0,1-11.09,47.7416Z" transform="translate(50.9702 31.4377)" fill="#fff"/>
      <path d="M-13.7006,42.4563a2.0337,2.0337,0,0,1,2.5557,1,2.0333,2.0333,0,0,1-.9307,2.5824,1.9239,1.9239,0,0,1-2.6716-.9469A1.9241,1.9241,0,0,1-13.7006,42.4563Z" transform="translate(50.9702 31.4377)" fill="#fff"/>
      <path d="M-15.2244,36.7622a2.0329,2.0329,0,0,1,2.3092,1.482,2.0328,2.0328,0,0,1-1.42,2.3495,1.9239,1.9239,0,0,1-2.4336-1.4531A1.9241,1.9241,0,0,1-15.2244,36.7622Z" transform="translate(50.9702 31.4377)" fill="#fff"/>
      <path d="M-15.6065,30.88a2.0314,2.0314,0,0,1,1.9785,1.9047A2.0325,2.0325,0,0,1-15.48,34.8111,1.9243,1.9243,0,0,1-17.5824,32.91,1.9255,1.9255,0,0,1-15.6065,30.88Z" transform="translate(50.9702 31.4377)" fill="#fff"/>
    </g>
    <g opacity="0.34">
      <path d="M-20.4572,25.8774a2.0439,2.0439,0,0,1,1.6861,2.2057,2.0419,2.0419,0,0,1-2.1346,1.7758,1.9487,1.9487,0,0,1-1.7969-2.2181A1.947,1.947,0,0,1-20.4572,25.8774Z" transform="translate(50.9702 31.4377)" fill="#fff"/>
      <path d="M-18.9473,20.0644a2.0418,2.0418,0,0,1,1.2854,2.4592,2.04,2.04,0,0,1-2.4047,1.3881,1.95,1.95,0,0,1-1.3947-2.4912A1.9487,1.9487,0,0,1-18.9473,20.0644Z" transform="translate(50.9702 31.4377)" fill="#fff"/>
      <path d="M-16.47,14.5924a2.0417,2.0417,0,0,1,.8481,2.6424,2.04,2.04,0,0,1-2.6048.9589,1.95,1.95,0,0,1-.9516-2.6925A1.95,1.95,0,0,1-16.47,14.5924Z" transform="translate(50.9702 31.4377)" fill="#fff"/>
      <path d="M-13.1033,9.6193a2.041,2.041,0,0,1,.39,2.7477,2.04,2.04,0,0,1-2.73.5046,1.95,1.95,0,0,1-.4817-2.8141A1.9485,1.9485,0,0,1-13.1033,9.6193Z" transform="translate(50.9702 31.4377)" fill="#fff"/>
      <path d="M-8.947,5.2833a2.0425,2.0425,0,0,1-.0772,2.7751,2.041,2.041,0,0,1-2.7771.0372,1.95,1.95,0,0,1-.0008-2.8544A1.9487,1.9487,0,0,1-8.947,5.2833Z" transform="translate(50.9702 31.4377)" fill="#fff"/>
      <path d="M-4.1206,1.7083a2.0419,2.0419,0,0,1-.5432,2.7223A2.041,2.041,0,0,1-7.4077,4a1.9492,1.9492,0,0,1,.48-2.8131A1.9478,1.9478,0,0,1-4.1206,1.7083Z" transform="translate(50.9702 31.4377)" fill="#fff"/>
      <path d="M1.24-1a2.0434,2.0434,0,0,1-.996,2.5913A2.042,2.042,0,0,1-2.3867.703a1.9488,1.9488,0,0,1,.949-2.692A1.9472,1.9472,0,0,1,1.24-1Z" transform="translate(50.9702 31.4377)" fill="#fff"/>
      <path d="M6.984-2.756A2.043,2.043,0,0,1,5.5614-.3726,2.0421,2.0421,0,0,1,3.12-1.6958,1.95,1.95,0,0,1,4.5129-4.1874,1.9475,1.9475,0,0,1,6.984-2.756Z" transform="translate(50.9702 31.4377)" fill="#fff"/>
      <path d="M12.9423-3.512a2.04,2.04,0,0,1-1.8058,2.1071,2.04,2.04,0,0,1-2.1822-1.717,1.9515,1.9515,0,0,1,1.7951-2.2207A1.95,1.95,0,0,1,12.9423-3.512Z" transform="translate(50.9702 31.4377)" fill="#fff"/>
      <path d="M18.9439-3.2629a2.04,2.04,0,0,1-2.1327,1.78A2.0426,2.0426,0,0,1,14.9459-3.54a1.95,1.95,0,0,1,2.14-1.89A1.95,1.95,0,0,1,18.9439-3.2629Z" transform="translate(50.9702 31.4377)" fill="#fff"/>
      <path d="M24.8157-2.0015A2.042,2.042,0,0,1,22.4134-.61a2.0428,2.0428,0,0,1-1.49-2.3424A1.9479,1.9479,0,0,1,23.353-4.4532,1.9481,1.9481,0,0,1,24.8157-2.0015Z" transform="translate(50.9702 31.4377)" fill="#fff"/>
      <path d="M30.3885.24a2.0434,2.0434,0,0,1-2.6048.9616A2.0427,2.0427,0,0,1,26.715-1.3613a1.9494,1.9494,0,0,1,2.65-1.0644A1.9483,1.9483,0,0,1,30.3885.24Z" transform="translate(50.9702 31.4377)" fill="#fff"/>
      <path d="M35.5,3.3932A2.0419,2.0419,0,0,1,32.77,3.9a2.0422,2.0422,0,0,1-.6189-2.7071,1.9493,1.9493,0,0,1,2.791-.6A1.9491,1.9491,0,0,1,35.5,3.3932Z" transform="translate(50.9702 31.4377)" fill="#fff"/>
      <path d="M40.0079,7.3626a2.0051,2.0051,0,0,1-2.9316-2.7315,1.9489,1.9489,0,0,1,2.8521-.1217A1.9484,1.9484,0,0,1,40.0079,7.3626Z" transform="translate(50.9702 31.4377)" fill="#fff"/>
      <path d="M43.7841,12.0333a2.0049,2.0049,0,0,1-2.4309-3.1847,2.0034,2.0034,0,1,1,2.4309,3.1847Z" transform="translate(50.9702 31.4377)" fill="#fff"/>
      <path d="M46.7181,17.2746A2.005,2.005,0,0,1,44.86,13.7251a2.0035,2.0035,0,1,1,1.8583,3.55Z" transform="translate(50.9702 31.4377)" fill="#fff"/>
      <path d="M48.7186,22.9381a2.0052,2.0052,0,0,1-1.2278-3.8141,2.0037,2.0037,0,1,1,1.2278,3.8141Z" transform="translate(50.9702 31.4377)" fill="#fff"/>
      <path d="M49.7255,28.8594a2.0051,2.0051,0,0,1-.5594-3.9675,2.0036,2.0036,0,1,1,.5594,3.9675Z" transform="translate(50.9702 31.4377)" fill="#fff"/>
      <path d="M49.7255,34.8656A2.0052,2.0052,0,0,1,49.839,30.86a2.0037,2.0037,0,1,1-.1135,4.0053Z" transform="translate(50.9702 31.4377)" fill="#fff"/>
      <path d="M48.7186,40.7868a2.0052,2.0052,0,0,1,.7828-3.93,2.0036,2.0036,0,1,1-.7828,3.93Z" transform="translate(50.9702 31.4377)" fill="#fff"/>
      <path d="M46.7181,46.45a2.0052,2.0052,0,0,1,1.44-3.7392,2.0037,2.0037,0,1,1-1.44,3.7392Z" transform="translate(50.9702 31.4377)" fill="#fff"/>
      <path d="M43.7841,51.6916a2.0051,2.0051,0,0,1,2.0539-3.44,2.0037,2.0037,0,1,1-2.0539,3.44Z" transform="translate(50.9702 31.4377)" fill="#fff"/>
      <path d="M40.0079,56.3623a2.0053,2.0053,0,0,1,2.6048-3.0449,2.0038,2.0038,0,1,1-2.6048,3.0449Z" transform="translate(50.9702 31.4377)" fill="#fff"/>
      <path d="M35.5,60.3317a2.0054,2.0054,0,0,1,3.08-2.5635,2.0039,2.0039,0,1,1-3.08,2.5635Z" transform="translate(50.9702 31.4377)" fill="#fff"/>
      <path d="M30.3885,63.4851a2.0052,2.0052,0,0,1,3.4679-2.0071,2.0037,2.0037,0,1,1-3.4679,2.0071Z" transform="translate(50.9702 31.4377)" fill="#fff"/>
      <path d="M24.8157,65.7264a2.0053,2.0053,0,0,1,3.7584-1.3894,2.0038,2.0038,0,1,1-3.7584,1.3894Z" transform="translate(50.9702 31.4377)" fill="#fff"/>
      <path d="M18.9439,66.9878a2.005,2.005,0,0,1,3.9393-.7313,2.0035,2.0035,0,1,1-3.9393.7313Z" transform="translate(50.9702 31.4377)" fill="#fff"/>
      <path d="M12.9423,67.237a2.0051,2.0051,0,0,1,4.0065-.0553,2.0037,2.0037,0,1,1-4.0065.0553Z" transform="translate(50.9702 31.4377)" fill="#fff"/>
      <path d="M6.984,66.4809a2.005,2.005,0,0,1,3.9585.6178A1.9505,1.9505,0,0,1,8.65,68.8014,1.95,1.95,0,0,1,6.984,66.4809Z" transform="translate(50.9702 31.4377)" fill="#fff"/>
      <path d="M1.24,64.7245a2.0387,2.0387,0,0,1,2.5121-1.1779,2.0379,2.0379,0,0,1,1.2843,2.4583,1.9505,1.9505,0,0,1-2.5492,1.29A1.9513,1.9513,0,0,1,1.24,64.7245Z" transform="translate(50.9702 31.4377)" fill="#fff"/>
      <path d="M-4.1206,62.0166a2.0388,2.0388,0,0,1,2.6759-.7344A2.039,2.039,0,0,1-.597,63.9236a1.9507,1.9507,0,0,1-2.7316.8376A1.951,1.951,0,0,1-4.1206,62.0166Z" transform="translate(50.9702 31.4377)" fill="#fff"/>
      <path d="M-8.947,58.4417a2.0376,2.0376,0,0,1,2.761-.2724,2.0372,2.0372,0,0,1,.39,2.7469,1.9515,1.9515,0,0,1-2.8334.3644A1.952,1.952,0,0,1-8.947,58.4417Z" transform="translate(50.9702 31.4377)" fill="#fff"/>
      <path d="M-13.1033,54.1056a2.0389,2.0389,0,0,1,2.7678.1955,2.038,2.038,0,0,1-.0776,2.7741,1.9517,1.9517,0,0,1-2.854-.1175A1.9512,1.9512,0,0,1-13.1033,54.1056Z" transform="translate(50.9702 31.4377)" fill="#fff"/>
      <path d="M-16.47,49.1325a2.04,2.04,0,0,1,2.6952.6583,2.04,2.04,0,0,1-.544,2.7218,1.95,1.95,0,0,1-2.7929-.5969A1.9492,1.9492,0,0,1-16.47,49.1325Z" transform="translate(50.9702 31.4377)" fill="#fff"/>
      <path d="M-18.9473,43.6605a2.0412,2.0412,0,0,1,2.5445,1.1066,2.04,2.04,0,0,1-.9976,2.59,1.95,1.95,0,0,1-2.6515-1.0613A1.95,1.95,0,0,1-18.9473,43.6605Z" transform="translate(50.9702 31.4377)" fill="#fff"/>
      <path d="M-20.4572,37.8475a2.0388,2.0388,0,0,1,2.3185,1.5234,2.0387,2.0387,0,0,1-1.4229,2.3822,1.9514,1.9514,0,0,1-2.4329-1.4975A1.9509,1.9509,0,0,1-20.4572,37.8475Z" transform="translate(50.9702 31.4377)" fill="#fff"/>
      <path d="M-20.9633,31.8625a2.0383,2.0383,0,0,1,2.0326,1.8931,2.0412,2.0412,0,0,1-1.8062,2.1076,1.95,1.95,0,0,1-2.1438-1.887A1.9511,1.9511,0,0,1-20.9633,31.8625Z" transform="translate(50.9702 31.4377)" fill="#fff"/>
    </g>
    <g opacity="0.18">
      <path d="M-26.0685,25.9A2.0277,2.0277,0,0,1-24.34,28.07a2.0285,2.0285,0,0,1-2.1133,1.7989,1.95,1.95,0,0,1-1.8247-2.179A1.9508,1.9508,0,0,1-26.0685,25.9Z" transform="translate(50.9702 31.4377)" fill="#fff"/>
      <path d="M-24.7735,20.0632A2.0311,2.0311,0,0,1-23.38,22.4621a2.0311,2.0311,0,0,1-2.3522,1.4716A1.9479,1.9479,0,0,1-27.22,21.5113,1.9476,1.9476,0,0,1-24.7735,20.0632Z" transform="translate(50.9702 31.4377)" fill="#fff"/>
      <path d="M-22.637,14.48A2.032,2.032,0,0,1-21.61,17.0574a2.0311,2.0311,0,0,1-2.5425,1.11A1.9475,1.9475,0,0,1-25.27,15.5533,1.9471,1.9471,0,0,1-22.637,14.48Z" transform="translate(50.9702 31.4377)" fill="#fff"/>
      <path d="M-19.7069,9.2689a2.03,2.03,0,0,1,.639,2.7,2.03,2.03,0,0,1-2.6774.7272,1.9482,1.9482,0,0,1-.7225-2.75A1.9479,1.9479,0,0,1-19.7069,9.2689Z" transform="translate(50.9702 31.4377)" fill="#fff"/>
      <path d="M-16.05,4.5392a2.0291,2.0291,0,0,1,.24,2.7643,2.03,2.03,0,0,1-2.7551.33,1.9483,1.9483,0,0,1-.3153-2.825A1.9493,1.9493,0,0,1-16.05,4.5392Z" transform="translate(50.9702 31.4377)" fill="#fff"/>
      <path d="M-11.7469.3886a2.0272,2.0272,0,0,1-.1626,2.77,2.0291,2.0291,0,0,1-2.7736-.0719,1.9488,1.9488,0,0,1,.097-2.8412A1.9509,1.9509,0,0,1-11.7469.3886Z" transform="translate(50.9702 31.4377)" fill="#fff"/>
      <path d="M-6.8876-3.0944A2.0258,2.0258,0,0,1-7.45-.3772,2.0284,2.0284,0,0,1-10.1841-.85,1.95,1.95,0,0,1-9.676-3.6481,1.9522,1.9522,0,0,1-6.8876-3.0944Z" transform="translate(50.9702 31.4377)" fill="#fff"/>
      <path d="M-1.573-5.8321a2.0244,2.0244,0,0,1-.9527,2.6055,2.0268,2.0268,0,0,1-2.6357-.8665,1.9515,1.9515,0,0,1,.91-2.6937A1.9522,1.9522,0,0,1-1.573-5.8321Z" transform="translate(50.9702 31.4377)" fill="#fff"/>
      <path d="M4.0855-7.7615A2.025,2.025,0,0,1,2.7611-5.3241a2.0278,2.0278,0,0,1-2.48-1.2436A1.9513,1.9513,0,0,1,1.5765-9.0988,1.9517,1.9517,0,0,1,4.0855-7.7615Z" transform="translate(50.9702 31.4377)" fill="#fff"/>
      <path d="M9.9659-8.84A2.0272,2.0272,0,0,1,8.2983-6.623a2.03,2.03,0,0,1-2.271-1.5941A1.948,1.948,0,0,1,7.6794-10.53,1.95,1.95,0,0,1,9.9659-8.84Z" transform="translate(50.9702 31.4377)" fill="#fff"/>
      <path d="M15.94-9.0547A2.03,2.03,0,0,1,13.97-7.1a2.0306,2.0306,0,0,1-2.0167-1.9067,1.9482,1.9482,0,0,1,1.97-2.0492A1.9475,1.9475,0,0,1,15.94-9.0547Z" transform="translate(50.9702 31.4377)" fill="#fff"/>
      <path d="M21.8841-8.4087A2.0309,2.0309,0,0,1,19.6525-6.76a2.0277,2.0277,0,0,1-1.7208-2.176,1.95,1.95,0,0,1,2.2439-1.7456A1.9482,1.9482,0,0,1,21.8841-8.4087Z" transform="translate(50.9702 31.4377)" fill="#fff"/>
      <path d="M27.6693-6.9011a2.028,2.028,0,0,1-2.4486,1.3043,2.0258,2.0258,0,0,1-1.384-2.4043A1.952,1.952,0,0,1,26.3124-9.4,1.9509,1.9509,0,0,1,27.6693-6.9011Z" transform="translate(50.9702 31.4377)" fill="#fff"/>
      <path d="M33.171-4.5606a2.0272,2.0272,0,0,1-2.6141.9307,2.0261,2.0261,0,0,1-1.0161-2.5817,1.9525,1.9525,0,0,1,2.6543-1.0195A1.9516,1.9516,0,0,1,33.171-4.5606Z" transform="translate(50.9702 31.4377)" fill="#fff"/>
      <path d="M38.2709-1.4412a2.0283,2.0283,0,0,1-2.7215.54,2.0258,2.0258,0,0,1-.6282-2.7029,1.9517,1.9517,0,0,1,2.774-.6213A1.95,1.95,0,0,1,38.2709-1.4412Z" transform="translate(50.9702 31.4377)" fill="#fff"/>
      <path d="M42.8638,2.3856a2.029,2.029,0,0,1-2.7709.1395,2.0276,2.0276,0,0,1-.23-2.7655,1.95,1.95,0,0,1,2.8343-.2117A1.948,1.948,0,0,1,42.8638,2.3856Z" transform="translate(50.9702 31.4377)" fill="#fff"/>
      <path d="M46.8549,6.8375a1.995,1.995,0,0,1-2.5894-3.0328,1.95,1.95,0,0,1,2.8359.2006A1.9493,1.9493,0,0,1,46.8549,6.8375Z" transform="translate(50.9702 31.4377)" fill="#fff"/>
      <path d="M50.1574,11.8208a1.995,1.995,0,0,1-2.1219-3.3764,1.9942,1.9942,0,1,1,2.1219,3.3764Z" transform="translate(50.9702 31.4377)" fill="#fff"/>
      <path d="M52.6981,17.2321a1.9948,1.9948,0,0,1-1.6057-3.65,1.994,1.994,0,1,1,1.6057,3.65Z" transform="translate(50.9702 31.4377)" fill="#fff"/>
      <path d="M54.4189,22.9574a1.9948,1.9948,0,0,1-1.054-3.8457,1.994,1.994,0,1,1,1.054,3.8457Z" transform="translate(50.9702 31.4377)" fill="#fff"/>
      <path d="M55.2836,28.8729a1.9947,1.9947,0,0,1-.4806-3.9583,1.9939,1.9939,0,1,1,.4806,3.9583Z" transform="translate(50.9702 31.4377)" fill="#fff"/>
      <path d="M55.2836,34.8517a1.9948,1.9948,0,0,1,.0966-3.9864,1.994,1.994,0,1,1-.0966,3.9864Z" transform="translate(50.9702 31.4377)" fill="#fff"/>
      <path d="M54.4189,40.7671a1.9947,1.9947,0,0,1,.6722-3.93,1.994,1.994,0,1,1-.6722,3.93Z" transform="translate(50.9702 31.4377)" fill="#fff"/>
      <path d="M52.6981,46.4925a1.9947,1.9947,0,0,1,1.241-3.7893,1.9939,1.9939,0,1,1-1.241,3.7893Z" transform="translate(50.9702 31.4377)" fill="#fff"/>
      <path d="M50.1574,51.9042A1.9948,1.9948,0,0,1,51.94,48.3374a1.994,1.994,0,1,1-1.7826,3.5668Z" transform="translate(50.9702 31.4377)" fill="#fff"/>
      <path d="M46.8549,56.8874a1.9947,1.9947,0,0,1,2.2825-3.2694,1.9939,1.9939,0,1,1-2.2825,3.2694Z" transform="translate(50.9702 31.4377)" fill="#fff"/>
      <path d="M42.8638,61.3389a1.9949,1.9949,0,0,1,2.7331-2.9038,1.9941,1.9941,0,1,1-2.7331,2.9038Z" transform="translate(50.9702 31.4377)" fill="#fff"/>
      <path d="M38.2709,65.1661a1.995,1.995,0,0,1,3.1248-2.4776,1.9942,1.9942,0,1,1-3.1248,2.4776Z" transform="translate(50.9702 31.4377)" fill="#fff"/>
      <path d="M33.171,68.2855a1.9946,1.9946,0,0,1,3.4509-1.997,1.9938,1.9938,0,1,1-3.4509,1.997Z" transform="translate(50.9702 31.4377)" fill="#fff"/>
      <path d="M27.6693,70.6261a1.995,1.995,0,0,1,3.7067-1.4709,1.9942,1.9942,0,1,1-3.7067,1.4709Z" transform="translate(50.9702 31.4377)" fill="#fff"/>
      <path d="M21.8841,72.1336a1.9947,1.9947,0,0,1,3.882-.91,1.9939,1.9939,0,1,1-3.882.91Z" transform="translate(50.9702 31.4377)" fill="#fff"/>
      <path d="M15.94,72.78a1.9951,1.9951,0,0,1,3.974-.3345,1.9943,1.9943,0,1,1-3.974.3345Z" transform="translate(50.9702 31.4377)" fill="#fff"/>
      <path d="M9.9659,72.5648a1.9951,1.9951,0,0,1,3.9809.2388,1.9943,1.9943,0,1,1-3.9809-.2388Z" transform="translate(50.9702 31.4377)" fill="#fff"/>
      <path d="M4.0855,71.4865a2.0292,2.0292,0,0,1,2.3467-1.4809,2.0265,2.0265,0,0,1,1.557,2.2957,1.9511,1.9511,0,0,1-2.366,1.5767A1.95,1.95,0,0,1,4.0855,71.4865Z" transform="translate(50.9702 31.4377)" fill="#fff"/>
      <path d="M-1.573,69.5571A2.0276,2.0276,0,0,1,.9654,68.4366a2.025,2.025,0,0,1,1.2031,2.5A1.9515,1.9515,0,0,1-.4031,72.1487,1.9519,1.9519,0,0,1-1.573,69.5571Z" transform="translate(50.9702 31.4377)" fill="#fff"/>
      <path d="M-6.8876,66.8193a2.0271,2.0271,0,0,1,2.675-.7371,2.0252,2.0252,0,0,1,.8245,2.6492,1.9523,1.9523,0,0,1-2.7214.8226A1.951,1.951,0,0,1-6.8876,66.8193Z" transform="translate(50.9702 31.4377)" fill="#fff"/>
      <path d="M-11.7469,63.3363a2.0287,2.0287,0,0,1,2.7536-.34,2.0263,2.0263,0,0,1,.43,2.7415,1.9516,1.9516,0,0,1-2.8118.4174A1.95,1.95,0,0,1-11.7469,63.3363Z" transform="translate(50.9702 31.4377)" fill="#fff"/>
      <path d="M-16.05,59.1857a2.03,2.03,0,0,1,2.7739.0623,2.0277,2.0277,0,0,1,.0287,2.7748,1.9507,1.9507,0,0,1-2.8428.0058A1.9492,1.9492,0,0,1-16.05,59.1857Z" transform="translate(50.9702 31.4377)" fill="#fff"/>
      <path d="M-19.7065,54.456a2.03,2.03,0,0,1,2.7354.4636,2.0294,2.0294,0,0,1-.3737,2.7493,1.9489,1.9489,0,0,1-2.8137-.406A1.9487,1.9487,0,0,1-19.7065,54.456Z" transform="translate(50.9702 31.4377)" fill="#fff"/>
      <path d="M-22.637,49.2452a2.0311,2.0311,0,0,1,2.6392.8567,2.0307,2.0307,0,0,1-.77,2.6654,1.9476,1.9476,0,0,1-2.725-.811A1.9479,1.9479,0,0,1-22.637,49.2452Z" transform="translate(50.9702 31.4377)" fill="#fff"/>
      <path d="M-24.7735,43.6617a2.0309,2.0309,0,0,1,2.485,1.234A2.032,2.032,0,0,1-23.44,47.42a1.9478,1.9478,0,0,1-2.5774-1.2011A1.9481,1.9481,0,0,1-24.7735,43.6617Z" transform="translate(50.9702 31.4377)" fill="#fff"/>
      <path d="M-26.0685,37.8254A2.0311,2.0311,0,0,1-23.791,39.41,2.03,2.03,0,0,1-25.3,41.7381a1.948,1.948,0,0,1-2.3729-1.5659A1.948,1.948,0,0,1-26.0685,37.8254Z" transform="translate(50.9702 31.4377)" fill="#fff"/>
      <path d="M-26.5021,31.8625a2.0251,2.0251,0,0,1,2.0249,1.8993,2.025,2.025,0,0,1-1.8317,2.0836,1.9525,1.9525,0,0,1-2.12-1.8943A1.9523,1.9523,0,0,1-26.5021,31.8625Z" transform="translate(50.9702 31.4377)" fill="#fff"/>
    </g>
    <g opacity="0.09">
      <path d="M-31.86,25.8914a2.0257,2.0257,0,0,1,1.7637,2.1516,2.0248,2.0248,0,0,1-2.0972,1.8243A1.9532,1.9532,0,0,1-34.0387,27.71,1.9529,1.9529,0,0,1-31.86,25.8914Z" transform="translate(50.9702 31.4377)" fill="#fff"/>
      <path d="M-30.721,20.0181a2.027,2.027,0,0,1,1.4719,2.359,2.0261,2.0261,0,0,1-2.3134,1.5412,1.9524,1.9524,0,0,1-1.5536-2.3765A1.9516,1.9516,0,0,1-30.721,20.0181Z" transform="translate(50.9702 31.4377)" fill="#fff"/>
      <path d="M-28.8352,14.3406a2.0263,2.0263,0,0,1,1.154,2.5283,2.0266,2.0266,0,0,1-2.4939,1.23,1.9512,1.9512,0,0,1-1.2333-2.5565A1.9526,1.9526,0,0,1-28.8352,14.3406Z" transform="translate(50.9702 31.4377)" fill="#fff"/>
      <path d="M-26.2363,8.9521a2.0205,2.0205,0,0,1,.8179,2.655,2.02,2.02,0,0,1-2.6295.9,1.9572,1.9572,0,0,1-.8963-2.6948A1.9568,1.9568,0,0,1-26.2363,8.9521Z" transform="translate(50.9702 31.4377)" fill="#fff"/>
      <path d="M-22.9708,3.9392a2.0228,2.0228,0,0,1,.4748,2.74,2.0237,2.0237,0,0,1-2.7226.5564,1.9539,1.9539,0,0,1-.544-2.7875A1.9546,1.9546,0,0,1-22.9708,3.9392Z" transform="translate(50.9702 31.4377)" fill="#fff"/>
      <path d="M-19.0884-.6125a2.0249,2.0249,0,0,1,.121,2.7771,2.0255,2.0255,0,0,1-2.7728.2036,1.9519,1.9519,0,0,1-.1832-2.8327A1.9524,1.9524,0,0,1-19.0884-.6125Z" transform="translate(50.9702 31.4377)" fill="#fff"/>
      <path d="M-14.6607-4.6359a2.02,2.02,0,0,1-.2346,2.7686,2.02,2.02,0,0,1-2.7755-.15,1.9572,1.9572,0,0,1,.1777-2.8339A1.9568,1.9568,0,0,1-14.6607-4.6359Z" transform="translate(50.9702 31.4377)" fill="#fff"/>
      <path d="M-9.7583-8.0652a2.0235,2.0235,0,0,1-.5834,2.72,2.0246,2.0246,0,0,1-2.7335-.5015,1.954,1.954,0,0,1,.5371-2.7891A1.9542,1.9542,0,0,1-9.7583-8.0652Z" transform="translate(50.9702 31.4377)" fill="#fff"/>
      <path d="M-4.4552-10.8342a2.0256,2.0256,0,0,1-.9272,2.6206A2.0268,2.0268,0,0,1-8.03-9.0624a1.952,1.952,0,0,1,.89-2.696A1.952,1.952,0,0,1-4.4552-10.8342Z" transform="translate(50.9702 31.4377)" fill="#fff"/>
      <path d="M1.1593-12.9A2.0234,2.0234,0,0,1-.0979-10.4228a2.0234,2.0234,0,0,1-2.5167-1.1826,1.9549,1.9549,0,0,1,1.23-2.5584A1.9535,1.9535,0,0,1,1.1593-12.9Z" transform="translate(50.9702 31.4377)" fill="#fff"/>
      <path d="M6.9932-14.2268a2.0181,2.0181,0,0,1-1.567,2.2934,2.0183,2.0183,0,0,1-2.3421-1.4929,1.96,1.96,0,0,1,1.5485-2.383A1.96,1.96,0,0,1,6.9932-14.2268Z" transform="translate(50.9702 31.4377)" fill="#fff"/>
      <path d="M12.9485-14.7951a2.0192,2.0192,0,0,1-1.8468,2.0762A2.02,2.02,0,0,1,8.97-14.5,1.9572,1.9572,0,0,1,10.81-16.6647,1.9579,1.9579,0,0,1,12.9485-14.7951Z" transform="translate(50.9702 31.4377)" fill="#fff"/>
      <path d="M18.9285-14.6062a2.0191,2.0191,0,0,1-2.0941,1.8267,2.02,2.02,0,0,1-1.8908-2.0357A1.9586,1.9586,0,0,1,17.0423-16.73,1.9587,1.9587,0,0,1,18.9285-14.6062Z" transform="translate(50.9702 31.4377)" fill="#fff"/>
      <path d="M24.8358-13.6593a2.0216,2.0216,0,0,1-2.31,1.5459,2.0222,2.0222,0,0,1-1.6149-2.26,1.9543,1.9543,0,0,1,2.3251-1.6316A1.9566,1.9566,0,0,1,24.8358-13.6593Z" transform="translate(50.9702 31.4377)" fill="#fff"/>
      <path d="M30.5717-11.96a2.0258,2.0258,0,0,1-2.4905,1.2375,2.0265,2.0265,0,0,1-1.3106-2.4506,1.9531,1.9531,0,0,1,2.516-1.3175A1.9516,1.9516,0,0,1,30.5717-11.96Z" transform="translate(50.9702 31.4377)" fill="#fff"/>
      <path d="M36.04-9.5338a2.0252,2.0252,0,0,1-2.628.9049,2.0258,2.0258,0,0,1-.9829-2.6005,1.9509,1.9509,0,0,1,2.6635-.981A1.9522,1.9522,0,0,1,36.04-9.5338Z" transform="translate(50.9702 31.4377)" fill="#fff"/>
      <path d="M41.1539-6.4275a2.022,2.022,0,0,1-2.7223.5587A2.02,2.02,0,0,1,37.79-8.5729a1.9572,1.9572,0,0,1,2.7686-.6324A1.957,1.957,0,0,1,41.1539-6.4275Z" transform="translate(50.9702 31.4377)" fill="#fff"/>
      <path d="M45.83-2.6969a2.0225,2.0225,0,0,1-2.7731.2106,2.024,2.024,0,0,1-.293-2.7636,1.9542,1.9542,0,0,1,2.8266-.2751A1.9546,1.9546,0,0,1,45.83-2.6969Z" transform="translate(50.9702 31.4377)" fill="#fff"/>
      <path d="M49.9913,1.6025a2.0261,2.0261,0,0,1-2.7764-.1449,2.0265,2.0265,0,0,1,.0619-2.78,1.9522,1.9522,0,0,1,2.8374.0881A1.9527,1.9527,0,0,1,49.9913,1.6025Z" transform="translate(50.9702 31.4377)" fill="#fff"/>
      <path d="M53.5728,6.394a1.9957,1.9957,0,0,1-2.3189-3.2465,1.9571,1.9571,0,0,1,2.8042.4478A1.9562,1.9562,0,0,1,53.5728,6.394Z" transform="translate(50.9702 31.4377)" fill="#fff"/>
      <path d="M56.5152,11.6032a1.9958,1.9958,0,0,1-1.8885-3.5146,1.9951,1.9951,0,1,1,1.8885,3.5146Z" transform="translate(50.9702 31.4377)" fill="#fff"/>
      <path d="M58.76,17.1486A1.9958,1.9958,0,0,1,57.3413,13.42,1.9951,1.9951,0,1,1,58.76,17.1486Z" transform="translate(50.9702 31.4377)" fill="#fff"/>
      <path d="M60.273,22.9369a1.9958,1.9958,0,0,1-.9226-3.8816,1.995,1.995,0,1,1,.9226,3.8816Z" transform="translate(50.9702 31.4377)" fill="#fff"/>
      <path d="M61.031,28.8709a1.9959,1.9959,0,0,1-.4188-3.9678,1.9951,1.9951,0,1,1,.4188,3.9678Z" transform="translate(50.9702 31.4377)" fill="#fff"/>
      <path d="M61.031,34.8536a1.9959,1.9959,0,0,1,.0857-3.9891,1.9952,1.9952,0,1,1-.0857,3.9891Z" transform="translate(50.9702 31.4377)" fill="#fff"/>
      <path d="M60.273,40.788a1.9959,1.9959,0,0,1,.5918-3.9458,1.9951,1.9951,0,1,1-.5918,3.9458Z" transform="translate(50.9702 31.4377)" fill="#fff"/>
      <path d="M58.76,46.576a1.9961,1.9961,0,0,1,1.0926-3.8377A1.9953,1.9953,0,1,1,58.76,46.576Z" transform="translate(50.9702 31.4377)" fill="#fff"/>
      <path d="M56.5152,52.1217A1.9959,1.9959,0,0,1,58.09,48.4556a1.9952,1.9952,0,1,1-1.5749,3.6661Z" transform="translate(50.9702 31.4377)" fill="#fff"/>
      <path d="M53.5728,57.3305a1.9958,1.9958,0,0,1,2.0353-3.4316,1.995,1.995,0,1,1-2.0353,3.4316Z" transform="translate(50.9702 31.4377)" fill="#fff"/>
      <path d="M49.9913,62.1225a1.9959,1.9959,0,0,1,2.4572-3.1434,1.9951,1.9951,0,1,1-2.4572,3.1434Z" transform="translate(50.9702 31.4377)" fill="#fff"/>
      <path d="M45.83,66.4218a1.9961,1.9961,0,0,1,2.8344-2.8088A1.9953,1.9953,0,1,1,45.83,66.4218Z" transform="translate(50.9702 31.4377)" fill="#fff"/>
      <path d="M41.1539,70.1524a1.9957,1.9957,0,0,1,3.17-2.422,1.995,1.995,0,1,1-3.17,2.422Z" transform="translate(50.9702 31.4377)" fill="#fff"/>
      <path d="M36.04,73.2583a1.996,1.996,0,0,1,3.4547-1.9966A1.9953,1.9953,0,1,1,36.04,73.2583Z" transform="translate(50.9702 31.4377)" fill="#fff"/>
      <path d="M30.5717,75.685a1.9962,1.9962,0,0,1,3.6811-1.5408,1.9954,1.9954,0,1,1-3.6811,1.5408Z" transform="translate(50.9702 31.4377)" fill="#fff"/>
      <path d="M24.8358,77.3841a1.9956,1.9956,0,0,1,3.8481-1.0523,1.9949,1.9949,0,1,1-3.8481,1.0523Z" transform="translate(50.9702 31.4377)" fill="#fff"/>
      <path d="M18.9285,78.3311a1.9958,1.9958,0,0,1,3.9523-.5467,1.9951,1.9951,0,1,1-3.9523.5467Z" transform="translate(50.9702 31.4377)" fill="#fff"/>
      <path d="M12.9485,78.52a1.9961,1.9961,0,0,1,3.99-.04,1.9954,1.9954,0,1,1-3.99.04Z" transform="translate(50.9702 31.4377)" fill="#fff"/>
      <path d="M6.9932,77.9517a1.9956,1.9956,0,0,1,3.9624.4648,1.9949,1.9949,0,1,1-3.9624-.4648Z" transform="translate(50.9702 31.4377)" fill="#fff"/>
      <path d="M1.1593,76.625a2.0261,2.0261,0,0,1,2.4046-1.3928A2.0249,2.0249,0,0,1,5.03,77.5963,1.9536,1.9536,0,0,1,2.6043,79.07,1.9529,1.9529,0,0,1,1.1593,76.625Z" transform="translate(50.9702 31.4377)" fill="#fff"/>
      <path d="M-4.4544,74.5591a2.019,2.019,0,0,1,2.563-1.07,2.0183,2.0183,0,0,1,1.15,2.529,1.958,1.958,0,0,1-2.5962,1.1533A1.9573,1.9573,0,0,1-4.4544,74.5591Z" transform="translate(50.9702 31.4377)" fill="#fff"/>
      <path d="M-9.7583,71.79a2.0234,2.0234,0,0,1,2.6825-.7357,2.0246,2.0246,0,0,1,.8148,2.6567,1.9536,1.9536,0,0,1-2.7227.8093A1.9551,1.9551,0,0,1-9.7583,71.79Z" transform="translate(50.9702 31.4377)" fill="#fff"/>
      <path d="M-14.66,68.3609a2.0256,2.0256,0,0,1,2.7527-.3856,2.0263,2.0263,0,0,1,.4679,2.7408,1.9526,1.9526,0,0,1-2.8026.4532A1.9525,1.9525,0,0,1-14.66,68.3609Z" transform="translate(50.9702 31.4377)" fill="#fff"/>
      <path d="M-19.088,64.3374a2.02,2.02,0,0,1,2.7783-.0305,2.02,2.02,0,0,1,.1155,2.7775,1.9568,1.9568,0,0,1-2.8377.0931A1.9566,1.9566,0,0,1-19.088,64.3374Z" transform="translate(50.9702 31.4377)" fill="#fff"/>
      <path d="M-22.97,59.7854a2.0236,2.0236,0,0,1,2.7628.3207,2.0241,2.0241,0,0,1-.238,2.7689,1.9539,1.9539,0,0,1-2.8273-.2677A1.9546,1.9546,0,0,1-22.97,59.7854Z" transform="translate(50.9702 31.4377)" fill="#fff"/>
      <path d="M-26.2363,54.7729a2.0258,2.0258,0,0,1,2.6975.671,2.0263,2.0263,0,0,1-.59,2.7169,1.9525,1.9525,0,0,1-2.769-.6267A1.9528,1.9528,0,0,1-26.2363,54.7729Z" transform="translate(50.9702 31.4377)" fill="#fff"/>
      <path d="M-28.8352,49.3843a2.022,2.022,0,0,1,2.587,1.0123,2.0213,2.0213,0,0,1-.9331,2.6187,1.9564,1.9564,0,0,1-2.6662-.9763A1.9558,1.9558,0,0,1-28.8352,49.3843Z" transform="translate(50.9702 31.4377)" fill="#fff"/>
      <path d="M-30.721,43.7069a2.02,2.02,0,0,1,2.4363,1.3368,2.0211,2.0211,0,0,1-1.26,2.4757,1.956,1.956,0,0,1-2.52-1.3108A1.9568,1.9568,0,0,1-30.721,43.7069Z" transform="translate(50.9702 31.4377)" fill="#fff"/>
      <path d="M-31.86,37.8336a2.0246,2.0246,0,0,1,2.2474,1.6389,2.0255,2.0255,0,0,1-1.57,2.293,1.953,1.953,0,0,1-2.33-1.6246A1.9533,1.9533,0,0,1-31.86,37.8336Z" transform="translate(50.9702 31.4377)" fill="#fff"/>
      <path d="M-32.2386,31.8625a2.0252,2.0252,0,0,1,2.0218,1.9116,2.0254,2.0254,0,0,1-1.8507,2.0748A1.953,1.953,0,0,1-34.17,33.9407,1.9533,1.9533,0,0,1-32.2386,31.8625Z" transform="translate(50.9702 31.4377)" fill="#fff"/>
    </g>
    <g opacity="0.06">
      <path d="M-37.6495,25.9922A2.0017,2.0017,0,0,1-35.8576,28.09a2.0012,2.0012,0,0,1-2.0813,1.812,1.9411,1.9411,0,0,1-1.8642-2.1033A1.9408,1.9408,0,0,1-37.6495,25.9922Z" transform="translate(50.9702 31.4377)" fill="#fff"/>
      <path d="M-36.6713,20.195A2.0019,2.0019,0,0,1-35.1258,22.48a2.002,2.002,0,0,1-2.27,1.5678,1.9406,1.9406,0,0,1-1.6176-2.2992A1.94,1.94,0,0,1-36.6713,20.195Z" transform="translate(50.9702 31.4377)" fill="#fff"/>
      <path d="M-35.0466,14.5446a2.0025,2.0025,0,0,1,1.278,2.4452,2.0017,2.0017,0,0,1-2.4321,1.3016,1.94,1.94,0,0,1-1.3488-2.4665A1.94,1.94,0,0,1-35.0466,14.5446Z" transform="translate(50.9702 31.4377)" fill="#fff"/>
      <path d="M-32.795,9.1136a2.0011,2.0011,0,0,1,.9941,2.5735,2,2,0,0,1-2.5634,1.0191,1.94,1.94,0,0,1-1.0621-2.6028A1.9411,1.9411,0,0,1-32.795,9.1136Z" transform="translate(50.9702 31.4377)" fill="#fff"/>
      <path d="M-29.9464,3.9708A2.0014,2.0014,0,0,1-29.2475,6.64a2.0028,2.0028,0,0,1-2.6624.7245,1.94,1.94,0,0,1-.7623-2.7057A1.9408,1.9408,0,0,1-29.9464,3.9708Z" transform="translate(50.9702 31.4377)" fill="#fff"/>
      <path d="M-26.54-.8215a2.0017,2.0017,0,0,1,.396,2.7307,2.0014,2.0014,0,0,1-2.7265.4223,1.9407,1.9407,0,0,1-.4548-2.774A1.9407,1.9407,0,0,1-26.54-.8215Z" transform="translate(50.9702 31.4377)" fill="#fff"/>
      <path d="M-22.6219-5.2043a2.001,2.001,0,0,1,.09,2.7578,2,2,0,0,1-2.7562.1159,1.9413,1.9413,0,0,1-.1434-2.8076A1.9412,1.9412,0,0,1-22.6219-5.2043Z" transform="translate(50.9702 31.4377)" fill="#fff"/>
      <path d="M-18.2387-9.123a2.0011,2.0011,0,0,1-.2183,2.75,2.0022,2.0022,0,0,1-2.7528-.192A1.94,1.94,0,0,1-21.039-9.37,1.9408,1.9408,0,0,1-18.2387-9.123Z" transform="translate(50.9702 31.4377)" fill="#fff"/>
      <path d="M-13.4468-12.5292A2.0016,2.0016,0,0,1-13.97-9.82a2.0015,2.0015,0,0,1-2.7138-.4976,1.94,1.94,0,0,1,.4822-2.769A1.94,1.94,0,0,1-13.4468-12.5292Z" transform="translate(50.9702 31.4377)" fill="#fff"/>
      <path d="M-8.3037-15.3777a2.0012,2.0012,0,0,1-.8237,2.6329,2.0014,2.0014,0,0,1-2.6411-.7978,1.9412,1.9412,0,0,1,.7894-2.6982A1.9406,1.9406,0,0,1-8.3037-15.3777Z" transform="translate(50.9702 31.4377)" fill="#fff"/>
      <path d="M-2.8727-17.6294a2.0012,2.0012,0,0,1-1.115,2.5232,2.0019,2.0019,0,0,1-2.5345-1.09,1.94,1.94,0,0,1,1.088-2.5921A1.9413,1.9413,0,0,1-2.8727-17.6294Z" transform="translate(50.9702 31.4377)" fill="#fff"/>
      <path d="M2.7773-19.2541a2.0011,2.0011,0,0,1-1.3924,2.3815A2.0028,2.0028,0,0,1-1.01-18.2418a1.94,1.94,0,0,1,1.3739-2.453A1.94,1.94,0,0,1,2.7773-19.2541Z" transform="translate(50.9702 31.4377)" fill="#fff"/>
      <path d="M8.575-20.2323a2.0019,2.0019,0,0,1-1.6521,2.21,2.0017,2.0017,0,0,1-2.2253-1.63,1.94,1.94,0,0,1,1.64-2.2825A1.94,1.94,0,0,1,8.575-20.2323Z" transform="translate(50.9702 31.4377)" fill="#fff"/>
      <path d="M14.4452-20.558a2.0009,2.0009,0,0,1-1.8877,2.0133,2.002,2.002,0,0,1-2.0306-1.8684,1.9409,1.9409,0,0,1,1.8854-2.0851A1.9418,1.9418,0,0,1,14.4452-20.558Z" transform="translate(50.9702 31.4377)" fill="#fff"/>
      <path d="M20.3154-20.2323A2.0015,2.0015,0,0,1,18.2176-18.44a2.0008,2.0008,0,0,1-1.812-2.0813,1.9408,1.9408,0,0,1,2.1033-1.8642A1.94,1.94,0,0,1,20.3154-20.2323Z" transform="translate(50.9702 31.4377)" fill="#fff"/>
      <path d="M26.1123-19.2541a2.0016,2.0016,0,0,1-2.2849,1.5455,2.0021,2.0021,0,0,1-1.5678-2.27,1.9405,1.9405,0,0,1,2.2989-1.618A1.94,1.94,0,0,1,26.1123-19.2541Z" transform="translate(50.9702 31.4377)" fill="#fff"/>
      <path d="M31.7631-17.6294a2.0027,2.0027,0,0,1-2.4456,1.278,2.0013,2.0013,0,0,1-1.3012-2.432,1.94,1.94,0,0,1,2.4665-1.3488A1.94,1.94,0,0,1,31.7631-17.6294Z" transform="translate(50.9702 31.4377)" fill="#fff"/>
      <path d="M37.1937-15.3777a2.0006,2.0006,0,0,1-2.5731.994,2.0005,2.0005,0,0,1-1.02-2.5634,1.9416,1.9416,0,0,1,2.6032-1.0621A1.9413,1.9413,0,0,1,37.1937-15.3777Z" transform="translate(50.9702 31.4377)" fill="#fff"/>
      <path d="M42.3369-12.5287a2.0016,2.0016,0,0,1-2.6689.6985,2.0024,2.0024,0,0,1-.7249-2.6624,1.94,1.94,0,0,1,2.7061-.7619A1.9407,1.9407,0,0,1,42.3369-12.5287Z" transform="translate(50.9702 31.4377)" fill="#fff"/>
      <path d="M47.1284-9.1227a2.0007,2.0007,0,0,1-2.73.396,2.0011,2.0011,0,0,1-.4227-2.7265,1.94,1.94,0,0,1,2.7739-.4547A1.94,1.94,0,0,1,47.1284-9.1227Z" transform="translate(50.9702 31.4377)" fill="#fff"/>
      <path d="M51.512-5.2043a2.0011,2.0011,0,0,1-2.7578.09,2.0007,2.0007,0,0,1-.1159-2.7567,1.941,1.941,0,0,1,2.8072-.143A1.9409,1.9409,0,0,1,51.512-5.2043Z" transform="translate(50.9702 31.4377)" fill="#fff"/>
      <path d="M55.43-.8211a2.0006,2.0006,0,0,1-2.75-.2183,2.0016,2.0016,0,0,1,.1917-2.7528,1.94,1.94,0,0,1,2.8057.1708A1.9419,1.9419,0,0,1,55.43-.8211Z" transform="translate(50.9702 31.4377)" fill="#fff"/>
      <path d="M58.8364,3.9708a2.0017,2.0017,0,0,1-2.709-.5235A2.001,2.001,0,0,1,56.625.7336a1.9406,1.9406,0,0,1,2.7694.4822A1.9408,1.9408,0,0,1,58.8364,3.9708Z" transform="translate(50.9702 31.4377)" fill="#fff"/>
      <path d="M61.6854,9.1136A1.96,1.96,0,0,1,59.85,5.6492a1.9609,1.9609,0,1,1,1.8351,3.4644Z" transform="translate(50.9702 31.4377)" fill="#fff"/>
      <path d="M63.9371,14.5446a1.96,1.96,0,0,1-1.4334-3.6491,1.961,1.961,0,1,1,1.4334,3.6491Z" transform="translate(50.9702 31.4377)" fill="#fff"/>
      <path d="M65.5614,20.195a1.96,1.96,0,0,1-1.0123-3.7878,1.9611,1.9611,0,1,1,1.0123,3.7878Z" transform="translate(50.9702 31.4377)" fill="#fff"/>
      <path d="M66.54,25.9922a1.96,1.96,0,0,1-.5795-3.8774,1.961,1.961,0,1,1,.5795,3.8774Z" transform="translate(50.9702 31.4377)" fill="#fff"/>
      <path d="M66.8657,31.8625a1.96,1.96,0,0,1-.1445-3.9181,1.9611,1.9611,0,1,1,.1445,3.9181Z" transform="translate(50.9702 31.4377)" fill="#fff"/>
      <path d="M66.54,37.7327a1.96,1.96,0,0,1,.29-3.91,1.9611,1.9611,0,1,1-.29,3.91Z" transform="translate(50.9702 31.4377)" fill="#fff"/>
      <path d="M65.5614,43.53a1.96,1.96,0,0,1,.7248-3.8531,1.9611,1.9611,0,1,1-.7248,3.8531Z" transform="translate(50.9702 31.4377)" fill="#fff"/>
      <path d="M63.9371,49.18a1.96,1.96,0,0,1,1.1544-3.7469A1.9611,1.9611,0,1,1,63.9371,49.18Z" transform="translate(50.9702 31.4377)" fill="#fff"/>
      <path d="M61.6854,54.6114a1.9605,1.9605,0,0,1,1.5694-3.5931,1.9612,1.9612,0,1,1-1.5694,3.5931Z" transform="translate(50.9702 31.4377)" fill="#fff"/>
      <path d="M58.8364,59.7541A1.96,1.96,0,0,1,60.8,56.3607a1.961,1.961,0,1,1-1.9635,3.3934Z" transform="translate(50.9702 31.4377)" fill="#fff"/>
      <path d="M55.43,64.5461a1.96,1.96,0,0,1,2.3305-3.1527A1.961,1.961,0,1,1,55.43,64.5461Z" transform="translate(50.9702 31.4377)" fill="#fff"/>
      <path d="M51.512,68.9292a1.96,1.96,0,0,1,2.6666-2.8736,1.9609,1.9609,0,1,1-2.6666,2.8736Z" transform="translate(50.9702 31.4377)" fill="#fff"/>
      <path d="M47.1284,72.8477a1.96,1.96,0,0,1,2.971-2.5585,1.9611,1.9611,0,1,1-2.971,2.5585Z" transform="translate(50.9702 31.4377)" fill="#fff"/>
      <path d="M42.3369,76.2537a1.96,1.96,0,0,1,3.2368-2.2115,1.9608,1.9608,0,1,1-3.2368,2.2115Z" transform="translate(50.9702 31.4377)" fill="#fff"/>
      <path d="M37.1937,79.1027a1.96,1.96,0,0,1,3.4648-1.8352,1.9611,1.9611,0,1,1-3.4648,1.8352Z" transform="translate(50.9702 31.4377)" fill="#fff"/>
      <path d="M31.7631,81.3543a1.96,1.96,0,0,1,3.6487-1.4329,1.9607,1.9607,0,1,1-3.6487,1.4329Z" transform="translate(50.9702 31.4377)" fill="#fff"/>
      <path d="M26.1123,82.979A1.96,1.96,0,0,1,29.9,81.9668a1.9611,1.9611,0,1,1-3.7878,1.0122Z" transform="translate(50.9702 31.4377)" fill="#fff"/>
      <path d="M20.3154,83.9572a1.96,1.96,0,0,1,3.8775-.58,1.961,1.961,0,1,1-3.8775.58Z" transform="translate(50.9702 31.4377)" fill="#fff"/>
      <path d="M14.4452,84.2829a1.96,1.96,0,0,1,3.9177-.1449,1.9609,1.9609,0,1,1-3.9177.1449Z" transform="translate(50.9702 31.4377)" fill="#fff"/>
      <path d="M8.575,83.9572a1.96,1.96,0,0,1,3.91.2894,1.961,1.961,0,1,1-3.91-.2894Z" transform="translate(50.9702 31.4377)" fill="#fff"/>
      <path d="M2.7773,82.979A2.0021,2.0021,0,0,1,5.063,81.4335a2.0022,2.0022,0,0,1,1.5678,2.27,1.9613,1.9613,0,1,1-3.8535-.7248Z" transform="translate(50.9702 31.4377)" fill="#fff"/>
      <path d="M-2.8727,81.3543a2.0023,2.0023,0,0,1,2.4448-1.278,2.0018,2.0018,0,0,1,1.302,2.4321,1.94,1.94,0,0,1-2.4664,1.3487A1.94,1.94,0,0,1-2.8727,81.3543Z" transform="translate(50.9702 31.4377)" fill="#fff"/>
      <path d="M-8.3037,79.1027A2.001,2.001,0,0,1-5.73,78.1086,2.001,2.001,0,0,1-4.711,80.672a1.941,1.941,0,0,1-2.6032,1.0621A1.9412,1.9412,0,0,1-8.3037,79.1027Z" transform="translate(50.9702 31.4377)" fill="#fff"/>
      <path d="M-13.4468,76.2541a2.0016,2.0016,0,0,1,2.669-.6989,2.0028,2.0028,0,0,1,.7248,2.6624,1.9405,1.9405,0,0,1-2.706.7623A1.941,1.941,0,0,1-13.4468,76.2541Z" transform="translate(50.9702 31.4377)" fill="#fff"/>
      <path d="M-18.2387,72.848a2.0021,2.0021,0,0,1,2.7307-.3964,2.0021,2.0021,0,0,1,.4219,2.7269,1.94,1.94,0,0,1-2.7736.4548A1.94,1.94,0,0,1-18.2387,72.848Z" transform="translate(50.9702 31.4377)" fill="#fff"/>
      <path d="M-22.6219,68.9292a2.0018,2.0018,0,0,1,2.7581-.09,2.0014,2.0014,0,0,1,.1159,2.7566,1.9413,1.9413,0,0,1-2.8076.143A1.9412,1.9412,0,0,1-22.6219,68.9292Z" transform="translate(50.9702 31.4377)" fill="#fff"/>
      <path d="M-26.54,64.5464a2.0011,2.0011,0,0,1,2.75.2183,2.0016,2.0016,0,0,1-.192,2.7524,1.94,1.94,0,0,1-2.8057-.1708A1.9406,1.9406,0,0,1-26.54,64.5464Z" transform="translate(50.9702 31.4377)" fill="#fff"/>
      <path d="M-29.9464,59.7541a2.0023,2.0023,0,0,1,2.7091.5235,2.002,2.002,0,0,1-.4976,2.7141,1.94,1.94,0,0,1-2.7694-.4825A1.9405,1.9405,0,0,1-29.9464,59.7541Z" transform="translate(50.9702 31.4377)" fill="#fff"/>
      <path d="M-32.795,54.6114a2.001,2.001,0,0,1,2.633.8237,2.0009,2.0009,0,0,1-.7978,2.6407,1.941,1.941,0,0,1-2.6983-.7894A1.94,1.94,0,0,1-32.795,54.6114Z" transform="translate(50.9702 31.4377)" fill="#fff"/>
      <path d="M-35.0466,49.18a2.0009,2.0009,0,0,1,2.5232,1.115,2.0018,2.0018,0,0,1-1.09,2.5344,1.9408,1.9408,0,0,1-2.592-1.0883A1.9407,1.9407,0,0,1-35.0466,49.18Z" transform="translate(50.9702 31.4377)" fill="#fff"/>
      <path d="M-36.6713,43.53A2.0017,2.0017,0,0,1-34.29,44.9228a2.0024,2.0024,0,0,1-1.3693,2.395,1.94,1.94,0,0,1-2.4529-1.3735A1.941,1.941,0,0,1-36.6713,43.53Z" transform="translate(50.9702 31.4377)" fill="#fff"/>
      <path d="M-37.6495,37.7327a2.0016,2.0016,0,0,1,2.21,1.6516A2.0019,2.0019,0,0,1-37.07,41.61a1.94,1.94,0,0,1-2.2826-1.6408A1.94,1.94,0,0,1-37.6495,37.7327Z" transform="translate(50.9702 31.4377)" fill="#fff"/>
      <path d="M-37.9752,31.8625A2,2,0,0,1-35.962,33.75a2.0013,2.0013,0,0,1-1.8683,2.03,1.9408,1.9408,0,0,1-2.0852-1.8851A1.9414,1.9414,0,0,1-37.9752,31.8625Z" transform="translate(50.9702 31.4377)" fill="#fff"/>
    </g>
  </g>
  <path d="M14.5055-31.4377A65.4761,65.4761,0,1,0,79.9823,34.0384,65.4763,65.4763,0,0,0,14.5055-31.4377ZM14.334,61.3637c-27.05,0-48.978-19.9282-48.978-44.5106s21.9278-44.51,48.978-44.51,48.9788,19.9282,48.9788,44.51S41.3849,61.3637,14.334,61.3637Z" transform="translate(50.9702 31.4377)" fill-rule="evenodd" fill="url(#radial-gradient-2)"/>
  <path d="M14.334,61.7593c-27.2249,0-49.3737-20.1449-49.3737-44.9062s22.1488-44.906,49.3737-44.906S63.7084-7.908,63.7084,16.8531,41.5587,61.7593,14.334,61.7593Zm0-89.0209c-26.7887,0-48.5824,19.79-48.5824,44.1147S-12.4547,60.968,14.334,60.968s48.5832-19.79,48.5832-44.1149S41.1229-27.2616,14.334-27.2616Z" transform="translate(50.9702 31.4377)" fill="url(#radial-gradient-3)"/>
</svg>
